# xmcd
#
# Track frame offsets:
# 150
# 14052
# 32271
# 52503
# 69877
# 92141
# 109086
# 122295
# 135541
# 152775
# 175045
#
# Disc length: 2717 seconds
#
#
# Revision: 0
# Processed by: cddbd v1.5.1PL0 Copyright (c) Steve Scherf et al.
# Submitted via: FreeRIP 2.30 
#
DISCID=790a9b0b
DTITLE=Perrys - Life Of Love
DYEAR=2004
DGENRE=Gospel
TTITLE0=Jesus Opened Up The Way
TTITLE1=But I Met A Nazarene
TTITLE2=His Grace Will Lead Me Home
TTITLE3=His Name Was John
TTITLE4=Living A Life Of Love
TTITLE5=What A God
TTITLE6=We Will Be Changed
TTITLE7=City Not Made With Hands
TTITLE8=I Will Find You Again
TTITLE9=I Am The Water
TTITLE10=David And Goliath
EXTD=
EXTT0=
EXTT1=
EXTT2=
EXTT3=
EXTT4=
EXTT5=
EXTT6=
EXTT7=
EXTT8=
EXTT9=
EXTT10=
PLAYORDER=
